<svg width="85" height="85" viewBox="0 0 85 85" fill="none" xmlns="http://www.w3.org/2000/svg">
<g id="Icon_Order">
<g id="Ellipse 2">
<path d="M84.3108 42.5C84.3108 65.9721 65.4372 85 42.1554 85C18.8736 85 0 65.9721 0 42.5C0 19.0279 18.8736 0 42.1554 0C65.4372 0 84.3108 19.0279 84.3108 42.5Z" fill="#00B074" fill-opacity="0.15"/>
<path d="M56.38 49.4278C57.4185 48.1891 57.9914 46.6268 58 45.0108C58 43.1556 57.2625 41.3763 55.9497 40.0644C54.637 38.7526 52.8565 38.0156 51 38.0156H50.44C52.0894 36.0569 52.9957 33.5802 53 31.0203C53.0047 29.1747 52.5442 27.3576 51.6611 25.7365C50.778 24.1155 49.5007 22.7428 47.947 21.745C46.3933 20.7472 44.6132 20.1563 42.7708 20.027C40.9284 19.8977 39.0831 20.234 37.4051 21.005C35.727 21.776 34.2702 22.9568 33.1691 24.4385C32.0679 25.9202 31.3578 27.6552 31.1042 29.4834C30.8506 31.3115 31.0618 33.1741 31.7182 34.8993C32.3745 36.6244 33.455 38.1567 34.86 39.3547C31.0805 40.7981 27.828 43.3532 25.532 46.6825C23.236 50.0118 22.0045 53.9587 22 58.002C22 58.5321 22.2107 59.0405 22.5858 59.4153C22.9609 59.7901 23.4696 60.0007 24 60.0007C24.5304 60.0007 25.0391 59.7901 25.4142 59.4153C25.7893 59.0405 26 58.5321 26 58.002C26 53.7614 27.6857 49.6945 30.6863 46.696C33.6869 43.6974 37.7565 42.0129 42 42.0129H44.7C44.1142 43.2041 43.8891 44.5403 44.0526 45.8576C44.216 47.1748 44.7608 48.4157 45.62 49.4278C43.9161 50.3802 42.4972 51.7693 41.5094 53.4521C40.5215 55.1349 40.0005 57.0504 40 59.0014C40 59.5314 40.2107 60.0398 40.5858 60.4146C40.9609 60.7894 41.4696 61 42 61C42.5304 61 43.0391 60.7894 43.4142 60.4146C43.7893 60.0398 44 59.5314 44 59.0014C44 57.1461 44.7375 55.3668 46.0503 54.055C47.363 52.7431 49.1435 52.0061 51 52.0061C52.8565 52.0061 54.637 52.7431 55.9497 54.055C57.2625 55.3668 58 57.1461 58 59.0014C58 59.5314 58.2107 60.0398 58.5858 60.4146C58.9609 60.7894 59.4696 61 60 61C60.5304 61 61.0391 60.7894 61.4142 60.4146C61.7893 60.0398 62 59.5314 62 59.0014C61.9995 57.0504 61.4785 55.1349 60.4906 53.4521C59.5028 51.7693 58.0839 50.3802 56.38 49.4278ZM42 38.0156C40.6155 38.0156 39.2622 37.6053 38.111 36.8367C36.9599 36.068 36.0627 34.9755 35.5328 33.6973C35.003 32.4191 34.8644 31.0126 35.1345 29.6556C35.4046 28.2987 36.0713 27.0522 37.0503 26.0739C38.0292 25.0956 39.2765 24.4294 40.6344 24.1595C41.9922 23.8896 43.3997 24.0281 44.6788 24.5575C45.9579 25.087 47.0511 25.9836 47.8203 27.134C48.5895 28.2843 49 29.6368 49 31.0203C49 32.8756 48.2625 34.6549 46.9497 35.9667C45.637 37.2786 43.8565 38.0156 42 38.0156ZM51 48.0088C50.2043 48.0088 49.4413 47.693 48.8787 47.1307C48.3161 46.5685 48 45.806 48 45.0108C48.0052 44.2174 48.323 43.4578 48.8845 42.8967C49.4459 42.3356 50.206 42.0181 51 42.0129C51.7957 42.0129 52.5587 42.3287 53.1213 42.891C53.6839 43.4532 54 44.2157 54 45.0108C54 45.806 53.6839 46.5685 53.1213 47.1307C52.5587 47.693 51.7957 48.0088 51 48.0088Z" fill="#009F00"/>
</g>
</g>
</svg>
