<svg width="85" height="85" viewBox="0 0 85 85" fill="none" xmlns="http://www.w3.org/2000/svg">
<g id="Group 203">
<g id="Icon_Order">
<ellipse id="Ellipse 2" cx="42.1554" cy="42.5" rx="42.1554" ry="42.5" fill="#FFF15B" fill-opacity="0.15"/>
</g>
<path id="Vector" d="M56.38 48.4278C57.4185 47.1891 57.9914 45.6268 58 44.0108C58 42.1556 57.2625 40.3763 55.9497 39.0644C54.637 37.7526 52.8565 37.0156 51 37.0156H50.44C52.0894 35.0569 52.9957 32.5802 53 30.0203C53.0047 28.1747 52.5442 26.3576 51.6611 24.7365C50.778 23.1155 49.5007 21.7428 47.947 20.745C46.3933 19.7472 44.6132 19.1563 42.7708 19.027C40.9284 18.8977 39.0831 19.234 37.4051 20.005C35.727 20.776 34.2702 21.9568 33.1691 23.4385C32.0679 24.9202 31.3578 26.6552 31.1042 28.4834C30.8506 30.3115 31.0618 32.1741 31.7182 33.8993C32.3745 35.6244 33.455 37.1567 34.86 38.3547C31.0805 39.7981 27.828 42.3532 25.532 45.6825C23.236 49.0118 22.0045 52.9587 22 57.002C22 57.5321 22.2107 58.0405 22.5858 58.4153C22.9609 58.7901 23.4696 59.0007 24 59.0007C24.5304 59.0007 25.0391 58.7901 25.4142 58.4153C25.7893 58.0405 26 57.5321 26 57.002C26 52.7614 27.6857 48.6945 30.6863 45.696C33.6869 42.6974 37.7565 41.0129 42 41.0129H44.7C44.1142 42.2041 43.8891 43.5403 44.0526 44.8576C44.216 46.1748 44.7608 47.4157 45.62 48.4278C43.9161 49.3802 42.4972 50.7693 41.5094 52.4521C40.5215 54.1349 40.0005 56.0504 40 58.0014C40 58.5314 40.2107 59.0398 40.5858 59.4146C40.9609 59.7894 41.4696 60 42 60C42.5304 60 43.0391 59.7894 43.4142 59.4146C43.7893 59.0398 44 58.5314 44 58.0014C44 56.1461 44.7375 54.3668 46.0503 53.055C47.363 51.7431 49.1435 51.0061 51 51.0061C52.8565 51.0061 54.637 51.7431 55.9497 53.055C57.2625 54.3668 58 56.1461 58 58.0014C58 58.5314 58.2107 59.0398 58.5858 59.4146C58.9609 59.7894 59.4696 60 60 60C60.5304 60 61.0391 59.7894 61.4142 59.4146C61.7893 59.0398 62 58.5314 62 58.0014C61.9995 56.0504 61.4785 54.1349 60.4906 52.4521C59.5028 50.7693 58.0839 49.3802 56.38 48.4278ZM42 37.0156C40.6155 37.0156 39.2622 36.6053 38.111 35.8367C36.9599 35.068 36.0627 33.9755 35.5328 32.6973C35.003 31.4191 34.8644 30.0126 35.1345 28.6556C35.4046 27.2987 36.0713 26.0522 37.0503 25.0739C38.0292 24.0956 39.2765 23.4294 40.6344 23.1595C41.9922 22.8896 43.3997 23.0281 44.6788 23.5575C45.9579 24.087 47.0511 24.9836 47.8203 26.134C48.5895 27.2843 49 28.6368 49 30.0203C49 31.8756 48.2625 33.6549 46.9497 34.9667C45.637 36.2786 43.8565 37.0156 42 37.0156ZM51 47.0088C50.2044 47.0088 49.4413 46.6929 48.8787 46.1307C48.3161 45.5685 48 44.806 48 44.0108C48.0052 43.2173 48.323 42.4578 48.8845 41.8967C49.4459 41.3356 50.206 41.0181 51 41.0129C51.7956 41.0129 52.5587 41.3287 53.1213 41.891C53.6839 42.4532 54 43.2157 54 44.0108C54 44.806 53.6839 45.5685 53.1213 46.1307C52.5587 46.6929 51.7956 47.0088 51 47.0088Z" fill="#FFC65B"/>
</g>
</svg>
